<svg width="24" height="24" viewBox="0 0 24 24" fill="none" xmlns="http://www.w3.org/2000/svg">
<path d="M15 22.25H9C6.3424 22.25 4.56492 21.6803 3.4423 20.5577C2.31968 19.4351 1.75 17.6576 1.75 15V9C1.75 6.3424 2.31968 4.56492 3.4423 3.4423C4.56492 2.31968 6.3424 1.75 9 1.75H15C17.6576 1.75 19.4351 2.31968 20.5577 3.4423C21.6803 4.56492 22.25 6.3424 22.25 9V15C22.25 17.6576 21.6803 19.4351 20.5577 20.5577C19.4351 21.6803 17.6576 22.25 15 22.25ZM9 2.25C6.65972 2.25 4.92432 2.66107 3.7927 3.7927C2.66107 4.92432 2.25 6.65972 2.25 9V15C2.25 17.3403 2.66107 19.0757 3.7927 20.2073C4.92432 21.3389 6.65972 21.75 9 21.75H15C17.3403 21.75 19.0757 21.3389 20.2073 20.2073C21.3389 19.0757 21.75 17.3403 21.75 15V9C21.75 6.65972 21.3389 4.92432 20.2073 3.7927C19.0757 2.66107 17.3403 2.25 15 2.25H9Z" fill="#CBCBCB" stroke="#CBCBCB"/>
<path d="M15.5 18.75C14.2561 18.75 13.25 17.7439 13.25 16.5V7.5C13.25 6.25614 14.2561 5.25 15.5 5.25C16.7439 5.25 17.75 6.25614 17.75 7.5V16.5C17.75 17.7439 16.7439 18.75 15.5 18.75ZM15.5 5.75C14.5339 5.75 13.75 6.53386 13.75 7.5V16.5C13.75 17.4661 14.5339 18.25 15.5 18.25C16.4661 18.25 17.25 17.4661 17.25 16.5V7.5C17.25 6.53386 16.4661 5.75 15.5 5.75Z" fill="#CBCBCB" stroke="#CBCBCB"/>
<path d="M8.5 18.75C7.25614 18.75 6.25 17.7439 6.25 16.5V13C6.25 11.7561 7.25614 10.75 8.5 10.75C9.74386 10.75 10.75 11.7561 10.75 13V16.5C10.75 17.7439 9.74386 18.75 8.5 18.75ZM8.5 11.25C7.53386 11.25 6.75 12.0339 6.75 13V16.5C6.75 17.4661 7.53386 18.25 8.5 18.25C9.46614 18.25 10.25 17.4661 10.25 16.5V13C10.25 12.0339 9.46614 11.25 8.5 11.25Z" fill="#CBCBCB" stroke="#CBCBCB"/>
</svg>
