<svg width="12" height="12" viewBox="0 0 12 12" fill="none" xmlns="http://www.w3.org/2000/svg">
<mask id="path-1-inside-1_865_2130" fill="white">
<path d="M6 11.375C3.035 11.375 0.625 8.965 0.625 6C0.625 3.035 3.035 0.625 6 0.625C8.965 0.625 11.375 3.035 11.375 6C11.375 8.965 8.965 11.375 6 11.375ZM6 1.375C3.45 1.375 1.375 3.45 1.375 6C1.375 8.55 3.45 10.625 6 10.625C8.55 10.625 10.625 8.55 10.625 6C10.625 3.45 8.55 1.375 6 1.375Z"/>
</mask>
<path d="M6 11.375C3.035 11.375 0.625 8.965 0.625 6C0.625 3.035 3.035 0.625 6 0.625C8.965 0.625 11.375 3.035 11.375 6C11.375 8.965 8.965 11.375 6 11.375ZM6 1.375C3.45 1.375 1.375 3.45 1.375 6C1.375 8.55 3.45 10.625 6 10.625C8.55 10.625 10.625 8.55 10.625 6C10.625 3.45 8.55 1.375 6 1.375Z" fill="white"/>
<path d="M6 10.375C3.58728 10.375 1.625 8.41271 1.625 6H-0.375C-0.375 9.51728 2.48272 12.375 6 12.375V10.375ZM1.625 6C1.625 3.58728 3.58728 1.625 6 1.625V-0.375C2.48272 -0.375 -0.375 2.48272 -0.375 6H1.625ZM6 1.625C8.41271 1.625 10.375 3.58728 10.375 6H12.375C12.375 2.48272 9.51728 -0.375 6 -0.375V1.625ZM10.375 6C10.375 8.41271 8.41271 10.375 6 10.375V12.375C9.51728 12.375 12.375 9.51728 12.375 6H10.375ZM6 0.375C2.89772 0.375 0.375 2.89772 0.375 6H2.375C2.375 4.00228 4.00228 2.375 6 2.375V0.375ZM0.375 6C0.375 9.10228 2.89772 11.625 6 11.625V9.625C4.00228 9.625 2.375 7.99771 2.375 6H0.375ZM6 11.625C9.10228 11.625 11.625 9.10228 11.625 6H9.625C9.625 7.99771 7.99771 9.625 6 9.625V11.625ZM11.625 6C11.625 2.89772 9.10228 0.375 6 0.375V2.375C7.99771 2.375 9.625 4.00228 9.625 6H11.625Z" fill="white" mask="url(#path-1-inside-1_865_2130)"/>
<mask id="path-3-inside-2_865_2130" fill="white">
<path d="M8 6.375H4C3.795 6.375 3.625 6.205 3.625 6C3.625 5.795 3.795 5.625 4 5.625H8C8.205 5.625 8.375 5.795 8.375 6C8.375 6.205 8.205 6.375 8 6.375Z"/>
</mask>
<path d="M8 6.375H4C3.795 6.375 3.625 6.205 3.625 6C3.625 5.795 3.795 5.625 4 5.625H8C8.205 5.625 8.375 5.795 8.375 6C8.375 6.205 8.205 6.375 8 6.375Z" fill="white"/>
<path d="M8 5.375H4V7.375H8V5.375ZM4 5.375C4.34728 5.375 4.625 5.65272 4.625 6H2.625C2.625 6.75728 3.24272 7.375 4 7.375V5.375ZM4.625 6C4.625 6.34728 4.34728 6.625 4 6.625V4.625C3.24272 4.625 2.625 5.24272 2.625 6H4.625ZM4 6.625H8V4.625H4V6.625ZM8 6.625C7.65272 6.625 7.375 6.34728 7.375 6H9.375C9.375 5.24272 8.75728 4.625 8 4.625V6.625ZM7.375 6C7.375 5.65272 7.65272 5.375 8 5.375V7.375C8.75728 7.375 9.375 6.75728 9.375 6H7.375Z" fill="white" mask="url(#path-3-inside-2_865_2130)"/>
<path d="M6 8.375C5.795 8.375 5.625 8.205 5.625 8V4C5.625 3.795 5.795 3.625 6 3.625C6.205 3.625 6.375 3.795 6.375 4V8C6.375 8.205 6.205 8.375 6 8.375Z" fill="white"/>
</svg>
