<svg width="70" height="70" viewBox="0 0 70 70" fill="none" xmlns="http://www.w3.org/2000/svg">
<path d="M11.6668 17.4998V52.4998H58.3335V17.4998H11.6668ZM11.6668 11.6665H58.3335C59.8806 11.6665 61.3643 12.2811 62.4583 13.375C63.5522 14.469 64.1668 15.9527 64.1668 17.4998V52.4998C64.1668 54.0469 63.5522 55.5307 62.4583 56.6246C61.3643 57.7186 59.8806 58.3332 58.3335 58.3332H11.6668C10.1197 58.3332 8.636 57.7186 7.54204 56.6246C6.44808 55.5307 5.8335 54.0469 5.8335 52.4998V17.4998C5.8335 15.9527 6.44808 14.469 7.54204 13.375C8.636 12.2811 10.1197 11.6665 11.6668 11.6665ZM21.8752 32.0832C23.0355 32.0832 24.1483 31.6222 24.9688 30.8018C25.7892 29.9813 26.2502 28.8685 26.2502 27.7082C26.2502 26.5478 25.7892 25.4351 24.9688 24.6146C24.1483 23.7941 23.0355 23.3332 21.8752 23.3332C20.7148 23.3332 19.602 23.7941 18.7816 24.6146C17.9611 25.4351 17.5002 26.5478 17.5002 27.7082C17.5002 28.8685 17.9611 29.9813 18.7816 30.8018C19.602 31.6222 20.7148 32.0832 21.8752 32.0832ZM20.4168 40.8332L26.2502 34.9998L32.0835 40.8332L43.7502 29.1665L52.5002 37.9165V46.6665H20.4168V40.8332Z" fill="#3A3A3A" fill-opacity="0.4"/>
</svg>
